<svg width="160" height="39" viewBox="0 0 160 39" fill="none" xmlns="http://www.w3.org/2000/svg"><g clip-path="url(#clip0_401_1699)"><path d="M141.849 14.207v15.731h-5.501V14.207h-3.422V9.451h3.422V8.414c0-2.621.734-4.756 2.2-6.219 1.467-1.463 3.056-2.256 5.44-2.256.978 0 1.894.122 2.75.305v4.695c-.367-.122-.856-.183-1.467-.183-1.039 0-1.833.244-2.506.732-.611.487-.977 1.28-.977 2.317v1.524h7.761v-5.61h5.439v5.61h4.89v4.756h-4.89v8.232c0 1.036.306 1.829.917 2.317.611.487 1.467.792 2.506.792.55 0 1.039 0 1.467-.183v4.512c-.795.183-1.467.305-2.506.305-2.384 0-4.339-.731-5.745-2.256-1.406-1.524-2.139-3.536-2.139-6.22v-7.62h-7.762l.123.243zM53.415 1.89h6.478l10.329 28.048h-6.05l-2.14-6.22H51.154l-2.078 6.22h-6.05L53.414 1.89zm7.028 17.012l-3.728-11.28-3.789 11.28h7.578-.06zm33.98-9.452h5.5v20.488h-5.5V9.451zm8.984-8.353h5.501v28.841h-5.501V1.098zM90.94 9.45H85.5v2.806c-1.956-3.659-7.456-3.903-10.879-2.012-3.239 1.768-4.766 5.243-4.766 9.146 0 3.78 1.466 7.073 4.583 8.78 3.79 2.073 9.412 1.098 11.123-2.439v4.451c0 1.159-.428 2.073-1.222 2.744-2.14 1.951-8.067 1.646-8.495-1.951h-5.562c.367 2.378 1.467 4.39 3.362 5.67 4.461 2.988 12.834 2.744 16.012-2.256.855-1.28 1.283-2.804 1.283-4.45V9.45zm-6.968 13.964c-1.772 1.768-5.44 1.768-7.15 0-1.834-1.585-1.834-6.341 0-7.927 1.772-1.768 5.378-1.829 7.15 0 1.895 1.586 1.895 6.403 0 7.927zm27.257-3.475v-.305c0-6.403 4.584-10.61 10.635-10.61 6.05 0 10.573 4.085 10.573 10.488v.305c0 6.463-4.584 10.548-10.635 10.548-6.05 0-10.573-4.085-10.573-10.426zm15.463 0v-.244c0-3.537-1.773-5.67-4.767-5.67-2.995 0-4.767 2.072-4.767 5.609v.305c0 3.536 1.711 5.67 4.767 5.67 3.055 0 4.767-2.073 4.767-5.61v-.06zM99.923 1.097h-5.5V6.28h5.5V1.097z" fill="#001028"/><path d="M28.113 14.634H0v-2.561l2.567-2.5h25.546v5.06z" fill="#263A5C"/><path d="M28.113 7.012H5.133l5.073-5.122h17.907v5.122z" fill="#001028"/><path d="M0 17.195h28.113v2.56l-2.567 2.562H0v-5.122z" fill="#4A6587"/><path d="M0 24.877h23.04l-5.133 5.061H0v-5.06z" fill="#6D8DAF"/></g><defs><clipPath id="clip0_401_1699"><path fill="#fff" d="M0 0h160v38.658H0z"/></clipPath></defs></svg>